PathFileType	4	(X/Y/Z)	/Users/niels/Desktop/University/Third Semester/Perception and Action/Exam/Gymnastics Motion Tracking/Code for Gym Tracking/Analyzed Data/Start Salto/stsalto_bad_id7_1_Sports2D/stsalto_bad_id7_1_Sports2D_px_person00.trc
DataRate	CameraRate	NumFrames	NumMarkers	Units	OrigDataRate	OrigDataStartFrame	OrigNumFrames
29.88505747126437	29.88505747126437	10	22	m	29.88505747126437	163	261
Frame#	Time	Hip			RHip			RKnee			RAnkle			RBigToe			RSmallToe			RHeel			LHip			LKnee			LAnkle			LBigToe			LSmallToe			LHeel			Neck			Head			Nose			RShoulder			RElbow			RWrist			LShoulder			LElbow			LWrist		
		X1	Y1	Z1	X2	Y2	Z2	X3	Y3	Z3	X4	Y4	Z4	X5	Y5	Z5	X6	Y6	Z6	X7	Y7	Z7	X8	Y8	Z8	X9	Y9	Z9	X10	Y10	Z10	X11	Y11	Z11	X12	Y12	Z12	X13	Y13	Z13	X14	Y14	Z14	X15	Y15	Z15	X16	Y16	Z16	X17	Y17	Z17	X18	Y18	Z18	X19	Y19	Z19	X20	Y20	Z20	X21	Y21	Z21	X22	Y22	Z22
163	5.454230769230769	1.1119627607919735	-0.4314532500317643	0.0	1.1139203602560839	-0.4273705081439053	0.0	0.9832817534843213	-0.37155765975434324	0.0	1.0718344768732393	-0.26635114620359723	0.0	1.0373370767362544	-0.2219813575189957	0.0	1.056981226604047	-0.2185463848026744	0.0	1.0749876410373327	-0.2523690349428578	0.0	1.1008345550316512	-0.42983570017746603	0.0	0.9823223124984829	-0.36311746798766353	0.0	0.993245680986842	-0.23783415253467705	0.0	0.9551029145406597	-0.19407031693670573	0.0	0.9741883046937723	-0.2009668798292095	0.0	1.0148418884780326	-0.23155526161698003	0.0	0.9898828673118718	-0.5538476010461112	0.0	0.9109297179334872	-0.5542399878748966	0.0	0.9438607044841135	-0.53287212587519	0.0	1.005523191880458	-0.551720897529287	0.0	0.9788665414751586	-0.47676299632823016	0.0	0.9139441854244503	-0.526117517502889	0.0	0.993757727433031	-0.546562368464659	0.0	0.9660285589096311	-0.49881488539112034	0.0	0.9286834866767397	-0.5356030912200062	0.0
164	5.487692307692307	1.1178829390803189	-0.43901786111386865	0.0	1.1206753597780303	-0.4360931410705387	0.0	0.9955560103363796	-0.36921674929235637	0.0	1.0930849518723593	-0.27246112954911017	0.0	1.0784944276991142	-0.22546702610783542	0.0	1.09428322672309	-0.2233248982290246	0.0	1.0981313004514694	-0.2607735761193195	0.0	1.1073916969461166	-0.4369537619305341	0.0	0.9936722567179531	-0.36186441206522135	0.0	1.0151517772119087	-0.23718712379519383	0.0	0.9798063551371163	-0.1913049429139922	0.0	0.992361247536206	-0.1991647897411447	0.0	1.031975260989301	-0.23333476979028403	0.0	0.9931630215542544	-0.5547663453419517	0.0	0.9130043161614262	-0.5543176576843197	0.0	0.9480082322941852	-0.532344340987902	0.0	1.0078126883582614	-0.553788384317303	0.0	0.9880865526809091	-0.47791555714730616	0.0	0.9190922515323597	-0.5236091944089701	0.0	0.9963196730220731	-0.5460308230877271	0.0	0.9734882427490945	-0.5003587851609386	0.0	0.9337995364578348	-0.5341421225874516	0.0
165	5.521153846153846	1.1235400803312994	-0.44660204791351704	0.0	1.1267470584032204	-0.4447729214055944	0.0	1.0083840013787182	-0.3670492820892338	0.0	1.1132145981868888	-0.27963335193772126	0.0	1.1125539535907687	-0.2311000575815662	0.0	1.1269274609869029	-0.23016919433124278	0.0	1.1205387527830524	-0.2702829801769158	0.0	1.1142257562863251	-0.44401392621467173	0.0	1.0055904500011719	-0.3609541053697973	0.0	1.0369802284463128	-0.23728748956085674	0.0	1.0048720689999404	-0.18885100295061114	0.0	1.0114119322042452	-0.1970308157485165	0.0	1.0494882319085492	-0.2351928199514868	0.0	0.9968802344691686	-0.5550012407630462	0.0	0.9158501892690097	-0.5541442604438458	0.0	0.9532098671003466	-0.5310256789317672	0.0	1.0101069381645145	-0.5553006979100855	0.0	0.9976211338495571	-0.47943733093998464	0.0	0.9258076897654824	-0.5210307960207491	0.0	1.0006128330382769	-0.5443287651325988	0.0	0.9822235860068981	-0.5003351410949322	0.0	0.9392847671583929	-0.531632756801674	0.0
166	5.554615384615384	1.1291091743846153	-0.4544776465317999	0.0	1.1324614058231566	-0.4534118345722316	0.0	1.021763036037731	-0.3651348610979871	0.0	1.1327026282246593	-0.28778381405490916	0.0	1.1373819334908934	-0.23865573895616204	0.0	1.1555266292805155	-0.23899958236488444	0.0	1.1425531394120054	-0.2805216864837714	0.0	1.1213426876296955	-0.4514589614535337	0.0	1.0183573080406108	-0.3603847521255848	0.0	1.0585938094002298	-0.23844987426094286	0.0	1.0306505563730681	-0.18689430604629148	0.0	1.0325062117516401	-0.19483483607612062	0.0	1.0678736399220177	-0.23740939882986814	0.0	1.0005939975706435	-0.5547806246337917	0.0	0.9193491949829178	-0.5529851650132713	0.0	0.9592426261174294	-0.5288127658156708	0.0	1.0123150006824415	-0.5563734829440107	0.0	1.0073907673121636	-0.48163072896218795	0.0	0.9346370453944667	-0.5181165038038605	0.0	1.006319923014063	-0.5421312337782751	0.0	0.9923866994579958	-0.4996592493212175	0.0	0.9453039177019501	-0.5281732529001746	0.0
167	5.5880769230769225	1.1345753581941178	-0.4627247753281484	0.0	1.1381992232476907	-0.46195241737248277	0.0	1.0356119612039572	-0.3637059868572348	0.0	1.1519834894247756	-0.29694261452476917	0.0	1.153768222029389	-0.24781689355890502	0.0	1.1810133900138884	-0.24962515409140168	0.0	1.1643502965135932	-0.291461226519223	0.0	1.128536698544958	-0.45951244935384294	0.0	1.0320599330068057	-0.36033620309222364	0.0	1.079971614713065	-0.24090043590337912	0.0	1.0570686325524368	-0.1859469919147134	0.0	1.0557196581591175	-0.19315876182957864	0.0	1.087424651768755	-0.2403547213890527	0.0	1.0038384030519658	-0.5544883851774272	0.0	0.9230599911649652	-0.5503140871642198	0.0	0.9655183151281523	-0.5257802131349114	0.0	1.0143215105261267	-0.5572406558847242	0.0	1.0173485809914389	-0.4847416070241499	0.0	0.9458635933724111	-0.5145624048176737	0.0	1.0125967637525752	-0.5403691726165553	0.0	1.003934152583431	-0.49929771468320655	0.0	0.9520409946827315	-0.5240991527145819	0.0
168	5.621538461538461	1.1399711612381849	-0.47128535142946215	0.0	1.1442929868546208	-0.47038620649851004	0.0	1.0500277487522283	-0.3629991504017118	0.0	1.1715704962447124	-0.30726340118335016	0.0	1.1656296155943693	-0.25854370563788304	0.0	1.204463371063498	-0.26197974818681324	0.0	1.1862187519508758	-0.3034631194007014	0.0	1.1356501804975248	-0.4680727025097674	0.0	1.04673255965587	-0.36093461658355347	0.0	1.101376218596327	-0.2446874224138995	0.0	1.0840511270454596	-0.18666623276299535	0.0	1.0807988614366202	-0.19272354518127058	0.0	1.1083991366640928	-0.24425996579742673	0.0	1.0063977126823886	-0.5542383191280909	0.0	0.9265360652788988	-0.5461525380802509	0.0	0.9714805620189819	-0.5220831597164952	0.0	1.0160708679467298	-0.55799902526093	0.0	1.027656155423767	-0.4887654905572445	0.0	0.9591491934038275	-0.5100382361618551	0.0	1.0184730720811328	-0.5394784615858809	0.0	1.0164603547413653	-0.4997084347583628	0.0	0.9594783466350243	-0.5194469445259677	0.0
169	5.654999999999999	1.1454912481498174	-0.4799381655266738	0.0	1.1507923446693067	-0.47871328502456995	0.0	1.0651662655434107	-0.36308643571008564	0.0	1.1918470803850645	-0.3188611381896633	0.0	1.1799144274222222	-0.2710401898895018	0.0	1.22706443460301	-0.27607763853622336	0.0	1.2084679788911852	-0.3171194267786145	0.0	1.1427095983512818	-0.4766402518215011	0.0	1.0623127131143955	-0.36203275337317503	0.0	1.1231599035475173	-0.24961804507223387	0.0	1.1115303862531618	-0.18933339689162593	0.0	1.107423470006958	-0.1940060873529147	0.0	1.1307566257508883	-0.2490531324774936	0.0	1.0083113079659385	-0.5536509297075127	0.0	0.9295642498667828	-0.5411510159894876	0.0	0.9769182043229196	-0.5179267849631596	0.0	1.0175169656797391	-0.558476098527076	0.0	1.0386161198132888	-0.4933853108553623	0.0	0.9731371977052722	-0.5043571989909195	0.0	1.023201155836109	-0.5390322691612985	0.0	1.0291095210942833	-0.5005843802278553	0.0	0.9673220069548435	-0.5135824029673687	0.0
170	5.688461538461538	1.1513477863507253	-0.48828809437197257	0.0	1.1574163682819922	-0.48678917331243193	0.0	1.080950841653854	-0.36386134077822874	0.0	1.2126770250762196	-0.33160233723084676	0.0	1.2028771830955867	-0.2852087954500553	0.0	1.2496541043567002	-0.2916297399826269	0.0	1.2309166529904754	-0.33275650858517675	0.0	1.1497502312599954	-0.4845290358771867	0.0	1.0784789734243925	-0.3633376416203582	0.0	1.145329203472288	-0.25540453711972627	0.0	1.1390051627898048	-0.19369154019653026	0.0	1.134883086960898	-0.1970919282727884	0.0	1.153899265047688	-0.254551249987112	0.0	1.009766287855335	-0.5522420487808865	0.0	0.9321781190755957	-0.5360681988144349	0.0	0.9819223891431471	-0.5135690417346308	0.0	1.0186386922745456	-0.5584274624149045	0.0	1.0502803467769315	-0.498209064489371	0.0	0.9860117951166054	-0.49760200160100926	0.0	1.026406734463707	-0.5382972532631158	0.0	1.0406139432661499	-0.5013242388098127	0.0	0.9753742386491906	-0.5058529245388889	0.0
171	5.721923076923076	1.1575278141713434	-0.495981017262636	0.0	1.1637991014284446	-0.494398605336321	0.0	1.097201723876994	-0.3651758349541268	0.0	1.2334891563665813	-0.3451918761812311	0.0	1.234965857821143	-0.3004158249184973	0.0	1.2725593640967696	-0.3079904318415771	0.0	1.2528316007923608	-0.3500568726548576	0.0	1.1565764261411102	-0.4913767337278668	0.0	1.0947949593077257	-0.3647805070999575	0.0	1.1675549282357367	-0.26200468339674193	0.0	1.165716741904731	-0.19941928141921553	0.0	1.1621551948487043	-0.20196354683168538	0.0	1.1770575881167036	-0.260871409922063	0.0	1.0110387912744943	-0.5499501973936546	0.0	0.934557895023147	-0.5310899458582033	0.0	0.9866601079024102	-0.5092811336528208	0.0	1.0194773789939957	-0.5578238429040151	0.0	1.0621248542151531	-0.5031250649544522	0.0	0.9970050325068405	-0.490129108055169	0.0	1.028126047941695	-0.5370495735122214	0.0	1.0495629026369093	-0.5017315926061814	0.0	0.9838538553112486	-0.4966977415574571	0.0
172	5.755384615384615	1.1637377600805936	-0.5028970316400716	0.0	1.1697074960795817	-0.5014658449890232	0.0	1.1139768338852503	-0.3670190758083722	0.0	1.2537881697800286	-0.3594694836722111	0.0	1.271158147631577	-0.316138732393051	0.0	1.2958752657664354	-0.3247754506891293	0.0	1.2734926021282067	-0.36827842043073566	0.0	1.162802439868506	-0.4973049748764574	0.0	1.1110146818471305	-0.3667007947713917	0.0	1.1895905164192986	-0.2697587296287016	0.0	1.1912627220792593	-0.20663999468152297	0.0	1.1884684014730833	-0.208900051636555	0.0	1.1998925823044544	-0.26852726254574544	0.0	1.0123999825016585	-0.5471339167688568	0.0	0.9369440026690148	-0.5258830620787209	0.0	0.9912257295242128	-0.5053707487760535	0.0	1.0200685639980356	-0.5568230179456761	0.0	1.0732889766990672	-0.5083022325699165	0.0	1.0069387396949285	-0.4825344346837	0.0	1.0286744594155244	-0.5356281039213487	0.0	1.054831314430043	-0.5019046100127872	0.0	0.9930660881990374	-0.4876262219912511	0.0
